<svg xmlns="http://www.w3.org/2000/svg"  viewBox="0 0 24 24" width="24px" height="24px"><path d="M 13.25 2.0429688 C 8.42 2.0429688 4.4902344 5.9629688 4.4902344 10.792969 C 4.4902344 11.362969 4.5503906 11.923125 4.6503906 12.453125 L 2.5097656 13.652344 C 2.0297656 13.922344 1.8591406 14.523906 2.1191406 15.003906 C 3.0191406 16.643906 4.3992969 17.913594 6.0292969 18.683594 C 6.0092969 18.802594 6 18.921969 6 19.042969 C 6 20.692969 7.35 22.042969 9 22.042969 C 10.48 22.042969 11.719219 20.962969 11.949219 19.542969 L 13.050781 19.542969 C 13.290781 20.958969 14.517 22.042969 16 22.042969 C 17.654 22.042969 19 20.696969 19 19.042969 C 19 18.556969 18.871344 18.090969 18.652344 17.667969 C 18.654344 17.665969 18.657156 17.664109 18.660156 17.662109 C 20.690156 16.062109 22 13.582969 22 10.792969 C 22 5.9629687 18.07 2.0429688 13.25 2.0429688 z M 13.25 4.0429688 C 16.97 4.0429688 20 7.0729688 20 10.792969 C 20 14.512969 16.97 17.542969 13.25 17.542969 L 11.599609 17.542969 C 11.079609 16.652969 10.11 16.042969 9 16.042969 C 8.2 16.042969 7.4599219 16.362578 6.9199219 16.892578 C 5.9399219 16.432578 5.0799219 15.743047 4.4199219 14.873047 L 6.2890625 13.822266 C 6.6990625 13.592266 6.8997656 13.112109 6.7597656 12.662109 C 6.5797656 12.082109 6.4902344 11.452969 6.4902344 10.792969 C 6.4902344 7.0729687 9.52 4.0429688 13.25 4.0429688 z M 11.5 7.0429688 A 1.5 1.5 0 0 0 11.5 10.042969 A 1.5 1.5 0 0 0 11.5 7.0429688 z M 16.5 7.0429688 A 1.5 1.5 0 0 0 16.5 10.042969 A 1.5 1.5 0 0 0 16.5 7.0429688 z M 10.822266 11.558594 C 10.694406 11.581422 10.568875 11.629828 10.453125 11.705078 C 9.990125 12.007078 9.8611094 12.626844 10.162109 13.089844 C 10.959109 14.313844 12.276547 15.042969 13.685547 15.042969 C 15.094547 15.042969 16.412937 14.313844 17.210938 13.089844 C 17.512937 12.627844 17.381922 12.007078 16.919922 11.705078 C 16.457922 11.404078 15.837156 11.534094 15.535156 11.996094 C 15.107156 12.650094 14.415547 13.042969 13.685547 13.042969 C 12.955547 13.042969 12.264891 12.651094 11.837891 11.996094 C 11.611391 11.649594 11.205844 11.490109 10.822266 11.558594 z M 9 18.042969 C 9.55 18.042969 10 18.492969 10 19.042969 C 10 19.222969 9.949375 19.392969 9.859375 19.542969 C 9.689375 19.841969 9.37 20.042969 9 20.042969 C 8.56 20.042969 8.1905469 19.753281 8.0605469 19.363281 C 8.0205469 19.263281 8 19.152969 8 19.042969 C 8 18.492969 8.45 18.042969 9 18.042969 z M 16.939453 18.724609 C 16.974453 18.826609 17 18.931969 17 19.042969 C 17 19.593969 16.551 20.042969 16 20.042969 C 15.557 20.042969 15.1935 19.748609 15.0625 19.349609 C 15.7175 19.219609 16.343453 19.002609 16.939453 18.724609 z"/></svg>